<?xml version="1.0" encoding="UTF-8" standalone="no"?>
<svg
   viewBox="0 0 85 85"
   version="1.1"
   id="svg2"
   sodipodi:docname="icon.svg"
   xml:space="preserve"
   inkscape:version="1.4.2 (ebf0e940d0, 2025-05-08)"
   width="85"
   height="85"
   xmlns:inkscape="http://www.inkscape.org/namespaces/inkscape"
   xmlns:sodipodi="http://sodipodi.sourceforge.net/DTD/sodipodi-0.dtd"
   xmlns="http://www.w3.org/2000/svg"
   xmlns:svg="http://www.w3.org/2000/svg"><defs
     id="defs2" /><sodipodi:namedview
     id="namedview2"
     pagecolor="#ffffff"
     bordercolor="#000000"
     borderopacity="0.25"
     inkscape:showpageshadow="2"
     inkscape:pageopacity="0.0"
     inkscape:pagecheckerboard="0"
     inkscape:deskcolor="#d1d1d1"
     inkscape:zoom="4.4953272"
     inkscape:cx="51.942826"
     inkscape:cy="42.822244"
     inkscape:window-width="1366"
     inkscape:window-height="696"
     inkscape:window-x="0"
     inkscape:window-y="0"
     inkscape:window-maximized="1"
     inkscape:current-layer="svg2" /><path
     style="fill:#ff5555;stroke-width:0.353755"
     d="m 17.652463,4.399167 c 0,0 -18.02786415,23.505684 -12.5763162,43.686154 4.3841495,16.229188 15.3436052,25.112327 22.5049882,29.786016 5.252195,3.427708 15.22396,3.088918 15.22396,3.088918 0,0 -13.023301,-13.789412 -18.754154,-19.416068 -12.135043,-11.914404 -3.971469,-16.989059 -3.971469,-16.989059 0,0 10.632075,-10.1036 18.092245,9.928672 4.727149,12.693479 14.120778,9.04612 14.120778,9.04612 0,0 1.319163,-16.393089 -3.309557,-25.814544 C 40.785934,21.030938 22.947756,18.519944 22.947756,18.519944 c 0,0 3.750827,-1.587595 1.103185,-7.281026 C 21.911109,6.6374788 17.652463,4.399167 17.652463,4.399167 Z"
     id="path2"
     sodipodi:nodetypes="csscscscscsc" /><path
     style="fill:#008080;stroke-width:0.353755"
     d="m 67.163456,4.399167 c 0,0 18.027865,23.505684 12.576318,43.686154 -4.384152,16.229188 -15.343604,25.112327 -22.504987,29.786016 -5.252196,3.427708 -15.223962,3.088918 -15.223962,3.088918 0,0 13.023303,-13.789412 18.754157,-19.416068 12.135041,-11.914404 3.971465,-16.989059 3.971465,-16.989059 0,0 -10.632072,-10.1036 -18.092244,9.928672 -4.727149,12.693479 -14.120776,9.04612 -14.120776,9.04612 0,0 -1.319166,-16.393089 3.309557,-25.814544 8.197003,-16.684438 26.035183,-19.195432 26.035183,-19.195432 0,0 -3.750829,-1.587595 -1.103189,-7.281026 2.139831,-4.6014392 6.398478,-6.839751 6.398478,-6.839751 z"
     id="path3"
     sodipodi:nodetypes="csscscscscsc" /></svg>
