<?xml version="1.0" encoding="UTF-8" standalone="no"?>
<svg
   viewBox="0 0 32 32"
   width="32"
   height="32"
   version="1.1"
   id="svg7"
   sodipodi:docname="logo.svg"
   xml:space="preserve"
   inkscape:version="1.4.2 (ebf0e940d0, 2025-05-08)"
   xmlns:inkscape="http://www.inkscape.org/namespaces/inkscape"
   xmlns:sodipodi="http://sodipodi.sourceforge.net/DTD/sodipodi-0.dtd"
   xmlns="http://www.w3.org/2000/svg"
   xmlns:svg="http://www.w3.org/2000/svg"><defs
     id="defs7" /><sodipodi:namedview
     id="namedview7"
     pagecolor="#ffffff"
     bordercolor="#000000"
     borderopacity="0.25"
     inkscape:showpageshadow="2"
     inkscape:pageopacity="0.0"
     inkscape:pagecheckerboard="0"
     inkscape:deskcolor="#d1d1d1"
     inkscape:zoom="10.628699"
     inkscape:cx="24.41503"
     inkscape:cy="18.864021"
     inkscape:window-width="1366"
     inkscape:window-height="696"
     inkscape:window-x="0"
     inkscape:window-y="0"
     inkscape:window-maximized="1"
     inkscape:current-layer="svg7" /><!--
    <rect width="128" height="128" fill="#f7f7f8" />
    --><path
     style="fill:#ff5555;stroke-width:0.135688"
     d="m 6.5206637,1.3568515 c 0,0 -6.89280497,9.0447155 -4.8084506,16.8099255 1.6762433,6.244804 5.8665011,9.662934 8.6045969,11.461314 2.008133,1.318943 5.820755,1.188577 5.820755,1.188577 0,0 -4.979352,-5.306003 -7.1704959,-7.471075 C 4.3273355,18.761068 7.4486111,16.8084 7.4486111,16.8084 c 0,0 4.0650859,-3.887749 6.9174199,3.820438 1.807386,4.884303 5.398962,3.480842 5.398962,3.480842 0,0 0.504373,-6.307871 -1.265382,-9.933137 C 15.365556,7.7565642 8.5452752,6.7903628 8.5452752,6.7903628 c 0,0 1.4340986,-0.6108881 0.4217939,-2.8016544 C 8.1489221,2.2181281 6.5206637,1.3568515 6.5206637,1.3568515 Z"
     id="path2"
     sodipodi:nodetypes="csscscscscsc" /><path
     style="fill:#008080;stroke-width:0.135688"
     d="m 25.450783,1.3568515 c 0,0 6.892805,9.0447155 4.808452,16.8099255 -1.676244,6.244804 -5.8665,9.662934 -8.604596,11.461314 -2.008135,1.318943 -5.820757,1.188577 -5.820757,1.188577 0,0 4.979353,-5.306003 7.170496,-7.471075 4.639735,-4.584525 1.518459,-6.537193 1.518459,-6.537193 0,0 -4.065086,-3.887749 -6.917421,3.820438 -1.807385,4.884303 -5.398962,3.480842 -5.398962,3.480842 0,0 -0.504372,-6.307871 1.265382,-9.933137 3.134056,-6.4199788 9.954336,-7.3861802 9.954336,-7.3861802 0,0 -1.434096,-0.6108881 -0.421794,-2.8016544 0.818148,-1.7705803 2.446405,-2.6318569 2.446405,-2.6318569 z"
     id="path3"
     sodipodi:nodetypes="csscscscscsc" /></svg>
